<?xml version="1.0" standalone="no"?>
<!DOCTYPE svg PUBLIC "-//W3C//DTD SVG 20010904//EN"
 "http://www.w3.org/TR/2001/REC-SVG-20010904/DTD/svg10.dtd">
<svg version="1.0" xmlns="http://www.w3.org/2000/svg"
 width="512.000000pt" height="512.000000pt" viewBox="0 0 512.000000 512.000000"
 preserveAspectRatio="xMidYMid meet">
<metadata>
Created by potrace 1.14, written by Peter Selinger 2001-2017
</metadata>
<g transform="translate(0.000000,512.000000) scale(0.100000,-0.100000)"
fill="#000000" stroke="none">
<path d="M2440 5089 c-47 -17 -179 -65 -295 -106 -115 -41 -289 -104 -385
-138 -96 -35 -317 -114 -490 -176 -173 -61 -334 -120 -358 -131 -55 -24 -122
-92 -153 -154 l-24 -49 -3 -1364 c-1 -894 1 -1384 8 -1420 13 -72 59 -166 107
-218 21 -22 79 -76 128 -118 50 -42 101 -87 115 -99 14 -12 104 -89 200 -171
96 -82 177 -152 180 -155 3 -3 178 -154 390 -335 212 -181 387 -332 390 -335
15 -19 110 -76 154 -92 65 -25 195 -32 264 -13 106 28 151 59 397 275 28 25
75 65 105 90 29 25 58 50 64 55 6 6 40 34 76 64 36 30 70 60 75 65 6 6 39 36
75 66 91 77 89 75 345 295 127 109 255 218 284 244 154 130 178 154 223 219
17 24 40 69 51 100 l22 57 2 1365 c1 948 -2 1379 -9 1410 -23 93 -81 171 -160
211 -34 17 -185 76 -213 83 -5 2 -17 6 -25 9 -19 7 -218 78 -495 177 -121 43
-238 85 -260 93 -22 9 -78 29 -125 46 -47 16 -174 62 -282 101 -109 39 -219
73 -245 75 -37 4 -68 -2 -133 -26z m-945 -715 c80 -10 212 -47 297 -84 129
-55 233 -124 324 -215 176 -175 296 -407 243 -471 -20 -24 -66 -42 -95 -36
-27 5 -74 55 -74 78 0 40 -100 200 -171 274 -185 192 -401 274 -757 289 -36 2
-72 44 -72 86 0 27 8 44 30 67 l31 30 102 -6 c56 -4 120 -9 142 -12z m2411
-17 c26 -30 30 -62 13 -100 -17 -37 -45 -48 -142 -53 -229 -12 -441 -85 -587
-202 -116 -93 -216 -227 -264 -355 -32 -85 -106 -106 -160 -46 -36 40 -32 69
23 183 98 202 272 377 478 480 150 75 356 123 526 122 84 -1 90 -2 113 -29z
m-2077 -941 c54 -15 402 -215 431 -249 35 -40 25 -113 -19 -137 -44 -23 -77
-10 -261 100 -100 61 -192 111 -204 112 -90 6 -89 6 -324 -136 -161 -97 -186
-103 -233 -57 -34 35 -38 77 -9 113 19 25 349 225 405 246 68 25 138 28 214 8z
m1655 -3 c61 -18 409 -225 430 -255 25 -35 20 -76 -13 -109 -49 -48 -72 -42
-265 75 -176 107 -200 118 -251 121 -43 3 -75 -12 -257 -121 -88 -53 -173
-100 -189 -104 -31 -9 -81 16 -99 49 -11 22 -5 78 10 96 19 23 373 229 421
246 62 20 148 21 213 2z m-569 -1138 c17 -4 72 -25 124 -46 81 -34 165 -61
236 -75 11 -2 31 -6 45 -9 14 -3 45 -8 70 -10 25 -3 59 -7 75 -10 50 -8 192
-17 335 -20 74 -2 142 -4 151 -4 29 -2 69 -51 69 -86 0 -47 -52 -143 -115
-212 -116 -129 -288 -206 -523 -237 -210 -27 -402 5 -570 95 -88 48 -167 70
-251 70 -82 0 -182 -26 -240 -62 -73 -44 -226 -94 -326 -106 -196 -22 -426 16
-592 99 -139 69 -271 208 -301 319 -11 43 5 91 38 109 12 6 88 13 178 15 379
10 564 41 775 129 48 20 106 39 130 42 23 4 43 7 44 8 7 6 623 -2 648 -9z
m-78 -929 c17 -11 43 -41 58 -67 39 -72 36 -127 -18 -294 -25 -77 -70 -216
-101 -310 -80 -248 -85 -258 -148 -291 -68 -35 -175 0 -211 70 -16 31 -186
553 -214 656 -17 64 -8 123 28 184 35 59 66 70 214 76 206 8 354 -1 392 -24z"/>
<path d="M2270 2102 c-14 -2 -68 -21 -120 -42 -138 -55 -263 -90 -385 -105
-28 -4 -61 -8 -75 -11 -24 -4 -156 -13 -265 -19 -27 -2 -56 -3 -63 -4 -22 -2
67 -71 128 -100 60 -29 151 -57 215 -66 22 -3 56 -8 75 -11 139 -20 292 7 434
76 165 80 221 94 356 93 118 -1 177 -17 315 -84 141 -68 205 -84 350 -84 66 0
144 3 174 8 69 10 194 51 248 83 53 31 106 75 98 82 -3 3 -34 7 -68 8 -318 11
-511 48 -732 139 l-90 37 -285 2 c-157 0 -296 0 -310 -2z"/>
<path d="M2380 1170 c0 -11 17 -72 38 -137 21 -65 60 -187 87 -271 27 -83 52
-149 56 -145 10 11 179 536 179 556 0 15 -18 17 -180 17 -172 0 -180 -1 -180
-20z"/>
</g>
</svg>
